# xmcd
#
# Track frame offsets: 
#        183
#        10853
#        19968
#        27753
#        37685
#        55663
#        66228
#        76160
#        85533
#        95790
#        102375
#        113833
#        125838
#        128863
#        132095
#        143190
#        157845
#        174295
#        183393
#
# Disc length: 2591 seconds
#
# Revision: 1
# Processed by: cddbd v1.5.2PL0 Copyright (c) Steve Scherf et al.
# Submitted via: ExactAudioCopy v0.95b4
#
DISCID=ed0a1d13
DTITLE=Lefty Frizzell - Life's Like Poetry - Disc 10 of 12
DYEAR=1992
DGENRE=Country
TTITLE0=Darling I'm Missing You (Ray Patterson Demo - 1946)
TTITLE1=I'll Never Cry over You (Ray Patterson Demo - 1946)
TTITLE2=My Confession (Ray Patterson Demo - 1946)
TTITLE3=I Hope You're Not Lonely When I'm Gone (Ray Patterson Demo - 1
TTITLE3=946)
TTITLE4=My Baby and My Wife (Ray Patterson Demo - 1946)
TTITLE5=It's All over Now (Ray Patterson Demo - 1946)
TTITLE6=Worried Mind (Ray Patterson Demo - 1946)
TTITLE7=Maiden's Prayer (Ray Patterson Demo - 1946)
TTITLE8=I'm Wasting My Life Away (Ray Patterson Demo - 1946)
TTITLE9=You Nearly Lose Your Mind (Ray Patterson Demo - 1946)
TTITLE10=If You've Got the Money (I've Got the Time) (Demo - 1950's)
TTITLE11=Lost Love Blues (Demo - 1950's)
TTITLE12=Just Can't Live That Fast (Any More) (Demo 1 - 1950's)
TTITLE13=Just Can't Live That Fast (Any More) (Demo 2 - 1950's)
TTITLE14=Honey Baby (Demo - 1950's)
TTITLE15=Please Be Mine, Dear Blue Eyes (Demo - 1950's)
TTITLE16=I'm Yours If You Want Me (Demo - 1950's)
TTITLE17=I'll Be a Bachelor (Demo - 1950's)
TTITLE18=Yesterday's Mail (Demo - 1950's)
EXTD=Life's Like Poetry - Disc 10 of 12\n© 1992 Bear Family Records
EXTT0=
EXTT1=
EXTT2=
EXTT3=
EXTT4=
EXTT5=
EXTT6=
EXTT7=
EXTT8=
EXTT9=
EXTT10=
EXTT11=
EXTT12=
EXTT13=
EXTT14=
EXTT15=
EXTT16=
EXTT17=
EXTT18=
PLAYORDER=
